# xmcd
#
# Track frame offsets: 
#        150
#        17586
#        36355
#        77449
#        102919
#        145275
#        181856
#        197271
#        211091
#        242861
#
# Disc length: 3388 seconds
#
# Revision: 0
# Processed by: cddbd v1.5.2PL0 Copyright (c) Steve Scherf et al.
# Submitted via: ExactAudioCopy v0.99pb4
#
DISCID=780d3a0a
DTITLE=Arne Domnérus - Memories Of You [CD 1)
DYEAR=2008
DGENRE=Jazz
TTITLE0=Poor Butterfly
TTITLE1=Memories Of You
TTITLE2=Take The A-train
TTITLE3=Blowing In The Wind
TTITLE4=Lady Be Good
TTITLE5=I'm Confessin'
TTITLE6=It Don't Mean A Thing
TTITLE7=I've Got It Bad
TTITLE8=Jeep's Blues
TTITLE9=Sometimes I Feel Like A Motherless Child
EXTD=
EXTT0=
EXTT1=
EXTT2=
EXTT3=
EXTT4=
EXTT5=
EXTT6=
EXTT7=
EXTT8=
EXTT9=
PLAYORDER=
